<svg id="visual" viewBox="0 0 900 600" width="900" height="600" xmlns="http://www.w3.org/2000/svg" xmlns:xlink="http://www.w3.org/1999/xlink" version="1.1"><path d="M0 466L21.5 454.7C43 443.3 86 420.7 128.8 419.2C171.7 417.7 214.3 437.3 257.2 457.8C300 478.3 343 499.7 385.8 494C428.7 488.3 471.3 455.7 514.2 435.3C557 415 600 407 642.8 404.8C685.7 402.7 728.3 406.3 771.2 425.3C814 444.3 857 478.7 878.5 495.8L900 513L900 601L878.5 601C857 601 814 601 771.2 601C728.3 601 685.7 601 642.8 601C600 601 557 601 514.2 601C471.3 601 428.7 601 385.8 601C343 601 300 601 257.2 601C214.3 601 171.7 601 128.8 601C86 601 43 601 21.5 601L0 601Z" fill="#e23838" stroke-linecap="round" stroke-linejoin="miter"></path></svg>