<svg id="visual" viewBox="0 0 900 600" width="900" height="600" xmlns="http://www.w3.org/2000/svg" xmlns:xlink="http://www.w3.org/1999/xlink" version="1.1"><g fill="#ffffff"><circle r="14" cx="173" cy="155"></circle><circle r="1" cx="186" cy="72"></circle><circle r="10" cx="228" cy="552"></circle><circle r="1" cx="884" cy="178"></circle><circle r="5" cx="836" cy="135"></circle><circle r="2" cx="547" cy="438"></circle><circle r="8" cx="193" cy="446"></circle><circle r="11" cx="725" cy="37"></circle><circle r="11" cx="421" cy="270"></circle><circle r="2" cx="37" cy="183"></circle><circle r="3" cx="529" cy="418"></circle><circle r="3" cx="855" cy="28"></circle><circle r="12" cx="381" cy="532"></circle><circle r="12" cx="381" cy="395"></circle><circle r="8" cx="87" cy="394"></circle><circle r="1" cx="507" cy="511"></circle><circle r="3" cx="894" cy="358"></circle><circle r="9" cx="430" cy="555"></circle><circle r="2" cx="238" cy="20"></circle><circle r="5" cx="273" cy="115"></circle><circle r="4" cx="396" cy="232"></circle><circle r="10" cx="690" cy="511"></circle><circle r="2" cx="692" cy="207"></circle><circle r="0" cx="890" cy="48"></circle><circle r="5" cx="656" cy="204"></circle><circle r="0" cx="639" cy="20"></circle><circle r="10" cx="625" cy="545"></circle><circle r="11" cx="840" cy="511"></circle><circle r="9" cx="208" cy="197"></circle><circle r="8" cx="61" cy="511"></circle><circle r="12" cx="706" cy="169"></circle><circle r="11" cx="633" cy="457"></circle><circle r="12" cx="639" cy="514"></circle><circle r="8" cx="483" cy="529"></circle><circle r="9" cx="46" cy="388"></circle><circle r="6" cx="319" cy="530"></circle><circle r="2" cx="321" cy="461"></circle><circle r="9" cx="379" cy="572"></circle><circle r="4" cx="208" cy="331"></circle><circle r="4" cx="56" cy="222"></circle><circle r="7" cx="35" cy="80"></circle><circle r="8" cx="626" cy="367"></circle><circle r="3" cx="758" cy="8"></circle><circle r="9" cx="272" cy="576"></circle><circle r="2" cx="656" cy="437"></circle><circle r="2" cx="383" cy="491"></circle><circle r="4" cx="327" cy="254"></circle><circle r="4" cx="600" cy="111"></circle><circle r="8" cx="427" cy="347"></circle><circle r="2" cx="764" cy="579"></circle><circle r="0" cx="878" cy="488"></circle><circle r="11" cx="760" cy="498"></circle><circle r="3" cx="273" cy="69"></circle><circle r="3" cx="213" cy="593"></circle><circle r="1" cx="871" cy="239"></circle><circle r="7" cx="346" cy="562"></circle><circle r="1" cx="545" cy="205"></circle><circle r="3" cx="565" cy="59"></circle><circle r="7" cx="309" cy="330"></circle><circle r="9" cx="854" cy="473"></circle><circle r="5" cx="604" cy="168"></circle><circle r="1" cx="669" cy="395"></circle><circle r="5" cx="647" cy="591"></circle><circle r="5" cx="441" cy="242"></circle><circle r="6" cx="743" cy="475"></circle><circle r="12" cx="80" cy="73"></circle><circle r="5" cx="277" cy="538"></circle><circle r="7" cx="737" cy="220"></circle><circle r="1" cx="653" cy="82"></circle><circle r="10" cx="149" cy="407"></circle><circle r="7" cx="726" cy="310"></circle><circle r="8" cx="162" cy="551"></circle><circle r="0" cx="682" cy="57"></circle><circle r="2" cx="267" cy="233"></circle><circle r="1" cx="857" cy="321"></circle><circle r="9" cx="784" cy="162"></circle><circle r="2" cx="287" cy="11"></circle><circle r="10" cx="462" cy="53"></circle><circle r="4" cx="526" cy="391"></circle><circle r="0" cx="63" cy="107"></circle><circle r="0" cx="679" cy="166"></circle><circle r="9" cx="671" cy="536"></circle><circle r="8" cx="112" cy="592"></circle><circle r="12" cx="338" cy="142"></circle><circle r="4" cx="64" cy="180"></circle><circle r="9" cx="113" cy="122"></circle><circle r="0" cx="574" cy="213"></circle><circle r="7" cx="603" cy="589"></circle><circle r="7" cx="725" cy="117"></circle><circle r="2" cx="485" cy="25"></circle><circle r="6" cx="350" cy="436"></circle><circle r="9" cx="279" cy="276"></circle><circle r="11" cx="561" cy="184"></circle><circle r="1" cx="812" cy="557"></circle><circle r="4" cx="810" cy="412"></circle><circle r="11" cx="31" cy="255"></circle><circle r="1" cx="810" cy="96"></circle><circle r="6" cx="351" cy="240"></circle><circle r="4" cx="742" cy="431"></circle><circle r="12" cx="552" cy="5"></circle><circle r="12" cx="835" cy="372"></circle><circle r="4" cx="203" cy="46"></circle><circle r="5" cx="266" cy="475"></circle><circle r="9" cx="411" cy="525"></circle><circle r="3" cx="337" cy="66"></circle><circle r="0" cx="105" cy="318"></circle><circle r="9" cx="448" cy="457"></circle><circle r="4" cx="231" cy="251"></circle><circle r="5" cx="481" cy="167"></circle><circle r="7" cx="467" cy="197"></circle><circle r="10" cx="246" cy="151"></circle><circle r="3" cx="560" cy="237"></circle><circle r="11" cx="625" cy="68"></circle><circle r="11" cx="878" cy="407"></circle><circle r="6" cx="738" cy="262"></circle><circle r="6" cx="51" cy="427"></circle><circle r="3" cx="589" cy="279"></circle><circle r="8" cx="759" cy="56"></circle><circle r="11" cx="306" cy="194"></circle><circle r="7" cx="733" cy="376"></circle><circle r="7" cx="326" cy="586"></circle></g></svg>