<svg id="visual" viewBox="0 0 900 600" width="900" height="600" xmlns="http://www.w3.org/2000/svg" xmlns:xlink="http://www.w3.org/1999/xlink" version="1.1"><path d="M0 447L21.5 433.7C43 420.3 86 393.7 128.8 379.5C171.7 365.3 214.3 363.7 257.2 363.7C300 363.7 343 365.3 385.8 370.5C428.7 375.7 471.3 384.3 514.2 384.7C557 385 600 377 642.8 372.3C685.7 367.7 728.3 366.3 771.2 378.8C814 391.3 857 417.7 878.5 430.8L900 444L900 601L878.5 601C857 601 814 601 771.2 601C728.3 601 685.7 601 642.8 601C600 601 557 601 514.2 601C471.3 601 428.7 601 385.8 601C343 601 300 601 257.2 601C214.3 601 171.7 601 128.8 601C86 601 43 601 21.5 601L0 601Z" fill="#fcaf3c"></path><path d="M0 417L21.5 413.8C43 410.7 86 404.3 128.8 413C171.7 421.7 214.3 445.3 257.2 451.7C300 458 343 447 385.8 439.8C428.7 432.7 471.3 429.3 514.2 429.5C557 429.7 600 433.3 642.8 436.3C685.7 439.3 728.3 441.7 771.2 446.2C814 450.7 857 457.3 878.5 460.7L900 464L900 601L878.5 601C857 601 814 601 771.2 601C728.3 601 685.7 601 642.8 601C600 601 557 601 514.2 601C471.3 601 428.7 601 385.8 601C343 601 300 601 257.2 601C214.3 601 171.7 601 128.8 601C86 601 43 601 21.5 601L0 601Z" fill="#fe9a36"></path><path d="M0 488L21.5 479.5C43 471 86 454 128.8 457.3C171.7 460.7 214.3 484.3 257.2 494.8C300 505.3 343 502.7 385.8 495.8C428.7 489 471.3 478 514.2 468C557 458 600 449 642.8 453.3C685.7 457.7 728.3 475.3 771.2 486.3C814 497.3 857 501.7 878.5 503.8L900 506L900 601L878.5 601C857 601 814 601 771.2 601C728.3 601 685.7 601 642.8 601C600 601 557 601 514.2 601C471.3 601 428.7 601 385.8 601C343 601 300 601 257.2 601C214.3 601 171.7 601 128.8 601C86 601 43 601 21.5 601L0 601Z" fill="#ff8335"></path><path d="M0 515L21.5 510.2C43 505.3 86 495.7 128.8 492C171.7 488.3 214.3 490.7 257.2 495C300 499.3 343 505.7 385.8 510C428.7 514.3 471.3 516.7 514.2 516.2C557 515.7 600 512.3 642.8 512C685.7 511.7 728.3 514.3 771.2 518.2C814 522 857 527 878.5 529.5L900 532L900 601L878.5 601C857 601 814 601 771.2 601C728.3 601 685.7 601 642.8 601C600 601 557 601 514.2 601C471.3 601 428.7 601 385.8 601C343 601 300 601 257.2 601C214.3 601 171.7 601 128.8 601C86 601 43 601 21.5 601L0 601Z" fill="#ff6b39"></path><path d="M0 549L21.5 545C43 541 86 533 128.8 530.5C171.7 528 214.3 531 257.2 538.8C300 546.7 343 559.3 385.8 562C428.7 564.7 471.3 557.3 514.2 553.5C557 549.7 600 549.3 642.8 549.3C685.7 549.3 728.3 549.7 771.2 549.5C814 549.3 857 548.7 878.5 548.3L900 548L900 601L878.5 601C857 601 814 601 771.2 601C728.3 601 685.7 601 642.8 601C600 601 557 601 514.2 601C471.3 601 428.7 601 385.8 601C343 601 300 601 257.2 601C214.3 601 171.7 601 128.8 601C86 601 43 601 21.5 601L0 601Z" fill="#ff5040"></path></svg>